<svg width="64" height="64" viewBox="0 0 64 64" fill="none" xmlns="http://www.w3.org/2000/svg">
<circle cx="32" cy="32" r="32" fill="#EB5757"/>
<path d="M15.54 29V27.065H19.155V38H16.995V29H15.54ZM21.8896 35.63C22.8496 34.83 23.6146 34.165 24.1846 33.635C24.7546 33.095 25.2296 32.535 25.6096 31.955C25.9896 31.375 26.1796 30.805 26.1796 30.245C26.1796 29.735 26.0596 29.335 25.8196 29.045C25.5796 28.755 25.2096 28.61 24.7096 28.61C24.2096 28.61 23.8246 28.78 23.5546 29.12C23.2846 29.45 23.1446 29.905 23.1346 30.485H21.0946C21.1346 29.285 21.4896 28.375 22.1596 27.755C22.8396 27.135 23.6996 26.825 24.7396 26.825C25.8796 26.825 26.7546 27.13 27.3646 27.74C27.9746 28.34 28.2796 29.135 28.2796 30.125C28.2796 30.905 28.0696 31.65 27.6496 32.36C27.2296 33.07 26.7496 33.69 26.2096 34.22C25.6696 34.74 24.9646 35.37 24.0946 36.11H28.5196V37.85H21.1096V36.29L21.8896 35.63ZM35.0029 38L32.1829 34.46V38H30.0829V26.9H32.1829V33.215L34.9729 29.69H37.7029L34.0429 33.86L37.7329 38H35.0029ZM46.6876 33.575H43.8526V36.485H41.8726V33.575H39.0376V31.745H41.8726V28.835H43.8526V31.745H46.6876V33.575Z" fill="white"/>
</svg>
